<svg version="1.2" baseProfile="tiny-ps" xmlns="http://www.w3.org/2000/svg" viewBox="0 0 211 104" width="211" height="104">
	<title>i-welcome-wink</title>
	<style>
		tspan { white-space:pre }
	</style>
	<path id=" -" fill="#000000" aria-label=" -"  d="M146.48 11.15L146.48 7.98L174.05 7.98L174.05 11.15L146.48 11.15Z" />
	<path id="I" fill="#000000" aria-label="I"  d="M54.13 18L45.13 18L45.13 16.58L47.36 16.58L47.36 1.92L45.13 1.92L45.13 0.5L54.13 0.5L54.13 1.92L51.88 1.92L51.88 16.58L54.13 16.58L54.13 18Z" />
	<path id="WELCOME" fill="#000000" aria-label="WELCOME"  d="M36.11 67.68L19.86 75.73L15.76 72.73L17.89 58.52L5.01 64.89L0.9 61.9L3.6 43.97L1.29 42.28L2.13 41.14L13.39 49.35L12.55 50.5L10.01 48.64L8.21 60.63L20.5 54.54L25.02 57.83L22.95 71.63L34.03 66.16L31.2 64.09L32.03 62.95L39.38 68.31L38.55 69.45L36.11 67.68ZM55.11 93.83L30.86 82.49L31.46 81.21L34.86 82.8L41.07 69.52L37.66 67.93L38.26 66.64L62.2 77.82L60.45 81.56L57.99 80.41L59.06 78.13L47.85 72.9L45.48 77.98L52.45 81.24L53.4 79.22L55.84 80.36L53.28 85.84L50.84 84.7L51.78 82.68L44.8 79.43L41.81 85.84L53.35 91.23L54.42 88.95L56.86 90.09L55.11 93.83ZM83.49 101.63L58.76 95.11L59.13 93.74L62.76 94.7L66.5 80.52L62.86 79.56L63.23 78.19L77.85 82.05L77.48 83.42L73.83 82.45L70.14 96.45L81.33 99.4L82.04 96.73L84.61 97.4L83.49 101.63ZM110.76 98.15L114.67 98.3Q113.41 100.96 110.35 102.15Q107.29 103.35 102.21 103.15Q94.77 102.87 90.54 100.26Q86.33 97.65 86.49 93.47Q86.65 89.28 91.05 87.01Q95.47 84.73 102.91 85.01Q105.53 85.11 108.34 85.6Q111.16 86.08 114.3 86.97L114.13 91.26L111.64 91.17Q110.95 88.94 108.97 87.77Q106.99 86.59 103.66 86.46Q99.37 86.3 97.21 88.1Q95.06 89.89 94.91 93.79Q94.76 97.69 96.77 99.65Q98.78 101.6 103.11 101.77Q106.04 101.88 107.93 100.98Q109.83 100.08 110.76 98.15ZM133.82 98.44Q137.48 97.58 138.83 95.32Q140.18 93.07 139.3 89.29Q138.41 85.5 136.2 84.08Q133.98 82.67 130.32 83.53Q126.68 84.38 125.31 86.66Q123.97 88.93 124.85 92.68Q125.72 96.42 127.94 97.87Q130.18 99.29 133.82 98.44ZM134.15 99.82Q126.92 101.51 122.27 100.13Q117.61 98.74 116.64 94.61Q115.67 90.48 119.22 87.17Q122.79 83.84 130 82.14Q137.22 80.45 141.88 81.84Q146.53 83.22 147.5 87.36Q148.47 91.49 144.9 94.81Q141.35 98.12 134.15 99.82ZM161.72 89.94L152.84 95.03L152.13 93.8L155.38 91.94L148.09 79.22L144.84 81.08L144.14 79.85L154.66 73.82L167.52 79.39L169.25 65.46L179.76 59.44L180.46 60.67L177.2 62.54L184.49 75.26L187.75 73.39L188.45 74.62L175.34 82.14L174.63 80.91L177.88 79.05L171.24 67.47L169.4 82.58L165.07 85.06L151.13 78.99L157.77 90.57L161.02 88.71L161.72 89.94ZM210.9 53.65L191 71.56L190.05 70.51L192.85 67.99L183.04 57.09L180.24 59.61L179.3 58.55L198.94 40.88L201.7 43.95L199.68 45.77L197.99 43.89L188.8 52.16L192.56 56.34L198.28 51.19L196.79 49.53L198.79 47.73L202.84 52.22L200.83 54.03L199.34 52.37L193.62 57.52L198.35 62.78L207.82 54.26L206.14 52.39L208.14 50.59L210.9 53.65Z" />
</svg>